<svg id="Camada_1" data-name="Camada 1" xmlns="http://www.w3.org/2000/svg" xmlns:xlink="http://www.w3.org/1999/xlink" viewBox="0 0 1473.66835 1399.41686"><defs><style>.cls-1,.cls-5,.cls-8{stroke-miterlimit:10;}.cls-1,.cls-8{stroke-width:4px;}.cls-1{fill:url(#Gradiente_sem_nome_489);stroke:url(#Gradiente_sem_nome_776);}.cls-2{fill:url(#Gradiente_sem_nome_44);}.cls-10,.cls-3,.cls-7{fill:none;}.cls-3,.cls-5{stroke-width:5px;}.cls-3{stroke:url(#Gradiente_sem_nome_479);}.cls-4{fill:url(#Gradiente_sem_nome_38);}.cls-5{fill:url(#Gradiente_sem_nome_25);stroke:url(#Gradiente_sem_nome_722);}.cls-6{fill:url(#Gradiente_sem_nome_16);}.cls-7{stroke-width:8px;stroke:url(#Gradiente_sem_nome_626);}.cls-8{fill:url(#Gradiente_sem_nome_14);stroke:url(#Gradiente_sem_nome_682);}.cls-9{fill:url(#Gradiente_sem_nome_10);}.cls-10{stroke-width:6px;stroke:url(#Gradiente_sem_nome_671);}.cls-11{fill:url(#Gradiente_sem_nome_6);}.cls-12{fill:url(#Gradiente_sem_nome_659);}</style><linearGradient id="Gradiente_sem_nome_489" x1="6.7195" y1="882.18067" x2="494.86107" y2="882.18067" gradientUnits="userSpaceOnUse"><stop offset="0" stop-color="#181824"/><stop offset="1" stop-color="#3d2259"/></linearGradient><linearGradient id="Gradiente_sem_nome_776" x1="4.7195" y1="882.23917" x2="496.86107" y2="882.23917" gradientUnits="userSpaceOnUse"><stop offset="0" stop-color="#760326"/><stop offset="1" stop-color="#c30540"/></linearGradient><linearGradient id="Gradiente_sem_nome_44" x1="2" y1="882.3211" x2="499.54503" y2="882.3211" gradientUnits="userSpaceOnUse"><stop offset="0" stop-color="#181824"/><stop offset="0.51053" stop-color="#29010d"/><stop offset="1" stop-color="#3d2259"/></linearGradient><linearGradient id="Gradiente_sem_nome_479" y1="882.37959" x2="501.54503" y2="882.37959" gradientUnits="userSpaceOnUse"><stop offset="0" stop-color="#c30540"/><stop offset="1" stop-color="#760326"/></linearGradient><linearGradient id="Gradiente_sem_nome_38" x1="-677.0953" y1="1953.74194" x2="344.48864" y2="1953.74194" gradientTransform="translate(-305.72045 1921.31713) rotate(-145.37991)" gradientUnits="userSpaceOnUse"><stop offset="0" stop-color="#231333"/><stop offset="0.00246" stop-color="#231333"/><stop offset="0.51269" stop-color="#231333"/><stop offset="0.70415" stop-color="#231230"/><stop offset="0.83289" stop-color="#250d27"/><stop offset="0.94284" stop-color="#270618"/><stop offset="1" stop-color="#29010d"/></linearGradient><linearGradient id="Gradiente_sem_nome_25" x1="67.42102" y1="1194.08885" x2="1316.24733" y2="351.74488" gradientUnits="userSpaceOnUse"><stop offset="0" stop-color="#09050d"/><stop offset="0.16919" stop-color="#0d050d"/><stop offset="0.32737" stop-color="#18030d"/><stop offset="0.46842" stop-color="#29010d"/><stop offset="0.66491" stop-color="#29010d"/></linearGradient><linearGradient id="Gradiente_sem_nome_722" x1="73.41099" y1="1222.22761" x2="1310.25736" y2="323.60612" gradientUnits="userSpaceOnUse"><stop offset="0.29442" stop-color="#c30540"/><stop offset="0.40863" stop-color="#760326"/></linearGradient><linearGradient id="Gradiente_sem_nome_16" x1="129.58417" y1="1335.66686" x2="1251.08417" y2="214.16686" gradientUnits="userSpaceOnUse"><stop offset="0.25872" stop-color="#09050d"/><stop offset="0.31937" stop-color="#110f19"/><stop offset="0.40426" stop-color="#161621"/><stop offset="0.54142" stop-color="#181824"/><stop offset="1" stop-color="#231333"/></linearGradient><linearGradient id="Gradiente_sem_nome_626" x1="102.55807" y1="1304.15285" x2="1278.11028" y2="245.68088" gradientUnits="userSpaceOnUse"><stop offset="0.2335" stop-color="#c30540"/><stop offset="0.50254" stop-color="#760326"/></linearGradient><linearGradient id="Gradiente_sem_nome_14" x1="42.00318" y1="674.52072" x2="1217.1992" y2="674.52072" gradientUnits="userSpaceOnUse"><stop offset="0.17259" stop-color="#181824"/><stop offset="0.48037" stop-color="#1d111d"/><stop offset="0.85607" stop-color="#29010d"/></linearGradient><linearGradient id="Gradiente_sem_nome_682" x1="324.99536" y1="1398.51485" x2="924.83384" y2="-86.13746" gradientUnits="userSpaceOnUse"><stop offset="0.20305" stop-color="#760326"/><stop offset="0.25737" stop-color="#84032b"/><stop offset="0.4058" stop-color="#a60436"/><stop offset="0.52838" stop-color="#bb053d"/><stop offset="0.60914" stop-color="#c30540"/></linearGradient><linearGradient id="Gradiente_sem_nome_10" x1="37.28146" y1="674.42627" x2="1221.91783" y2="674.42627" gradientUnits="userSpaceOnUse"><stop offset="0" stop-color="#181824"/><stop offset="0.43145" stop-color="#1d121e"/><stop offset="1" stop-color="#29010d"/></linearGradient><linearGradient id="Gradiente_sem_nome_671" x1="206.67128" y1="1373.03299" x2="1094.69822" y2="-48.10717" gradientUnits="userSpaceOnUse"><stop offset="0.51117" stop-color="#760326"/><stop offset="0.58901" stop-color="#84032b"/><stop offset="0.73509" stop-color="#a80437"/><stop offset="0.82961" stop-color="#c30540"/><stop offset="0.94134" stop-color="#29010d"/></linearGradient><linearGradient id="Gradiente_sem_nome_6" x1="133.13022" y1="1835.53726" x2="-909.64857" y2="1846.82329" gradientTransform="translate(-305.72045 1921.31713) rotate(-145.37991)" gradientUnits="userSpaceOnUse"><stop offset="0.01117" stop-color="#231333"/><stop offset="0.05259" stop-color="#250e27"/><stop offset="0.12996" stop-color="#270619"/><stop offset="0.22117" stop-color="#290210"/><stop offset="0.35951" stop-color="#29010d"/><stop offset="0.40458" stop-color="#1d020d"/><stop offset="0.48013" stop-color="#12040d"/><stop offset="0.58652" stop-color="#0b050d"/><stop offset="0.8819" stop-color="#09050d"/></linearGradient><linearGradient id="Gradiente_sem_nome_659" x1="452.31175" y1="583.75964" x2="1463.936" y2="583.75964" gradientUnits="userSpaceOnUse"><stop offset="0.02538" stop-color="#760326"/><stop offset="0.07596" stop-color="#88032c"/><stop offset="0.15708" stop-color="#9e0433"/><stop offset="0.253" stop-color="#af0439"/><stop offset="0.37163" stop-color="#ba053d"/><stop offset="0.53804" stop-color="#c1053f"/><stop offset="1" stop-color="#c30540"/></linearGradient></defs><g id="Novo_símbolo" data-name="Novo símbolo"><g id="Auguros_icon" data-name="Auguros icon"><path class="cls-1" d="M488.65625,657.12747c7.39891-36.79147,8.31249-66.69736,2.03018-66.45752l-5.61507.32926q-6.09842.35721-12.1311.79094-11.51865.828-22.79726,1.93288-12.14547,1.18971-24.01225,2.701-6.8139.868-13.53639,1.84149-4.26268.61776-8.48862,1.27766-10.69088,1.67-21.14561,3.61276-4.03026.74868-8.02488,1.5381-27.31942,5.39808-52.99631,12.6916-9.83205,2.79237-19.42352,5.86334-4.7702,1.52709-9.48072,3.12272-6.07481,2.05815-12.01123,4.2889a362.97288,362.97288,0,0,0-39.70076,17.6503q-9.41568,4.8918-18.41651,10.29787-3.42332,2.05606-6.7878,4.18731-12.97158,8.21564-25.10212,17.55917l-9.66633,7.443c-10.01985,9.09352-22.247,21.02624-27.17138,26.51715l-4.50476,5.21473q-9.513,11.01337-19.03988,22.84962-8.11728,10.09992-16.12739,20.72567-9.03536,11.99991-17.79369,24.58208-2.12616,3.05954-4.22939,6.14937-8.63763,12.69159-16.80877,25.8446Q67.92655,832.1773,60.7355,845.00462q-6.0168,10.75322-11.55385,21.68427-5.17371,10.23042-9.86022,20.57371-4.29747,9.49949-8.13095,19.06121a393.10115,393.10115,0,0,0-13.64686,39.94766q-2.7501,9.81747-4.85222,19.59749a269.25033,269.25033,0,0,0-5.3828,37.117q-.64629,9.02709-.58222,17.933a194.37111,194.37111,0,0,0,3.29806,34.647,172.61642,172.61642,0,0,0,5.04528,20.06385A164.15243,164.15243,0,0,0,28.763,1107.05649a171.68473,171.68473,0,0,0,21.00281,29.27539l9.90551,11.17442c14.12229,11.21863,37.04853,23.00257,50.94721,26.18652l12.87628-6.90837c1.95575-1.04889,3.86564-2.203,5.70732-3.4418,9.12333-6.13478,16.57152-14.33321,19.60581-22.06033a18.062,18.062,0,0,0,1.36966-8.70608c-2.11235-17.48925-4.96657-36.37482-7.87712-56.0059-2.93514-19.79461-5.928-40.34685-8.2754-60.98883-2.62415-23.07233-4.44235-46.25588-4.47356-68.619-.0127-9.00726.2646-17.88072.89571-26.56038a253.85525,253.85525,0,0,1,4.47576-33.11472,170.21794,170.21794,0,0,1,10.89347-34.65144,123.47806,123.47806,0,0,1,17.20345-28.227q2.84123-3.46878,5.97578-6.725a115.62042,115.62042,0,0,1,35.807-25.01182,142.71128,142.71128,0,0,1,15.44767-5.9517q2.63367-.847,5.36318-1.62069a198.22765,198.22765,0,0,1,36.56068-6.50121l7.97545-.70614c9.52935-.1758,24.50424-.42034,33.27754-.54344s42.23723,1.3167,55.32381,1.73218l12.61721.70312q6.04993.33738,12.2471.7411,3.12752.20359,6.29231.42424,5.4807.382,11.07493.81489,5.17785.40056,10.45265.84462,4.08123.34357,8.22072.713,5.27521.47076,10.64433.98392,5.26694.50339,10.625,1.04751,6.65439.67558,13.44828,1.41394,9.17414.99687,18.60349,2.108,1.58427.18666,3.176.37661,3.19462.38157,6.41826.77552l2.05269.25108C486.92563,790.57445,481.25734,693.919,488.65625,657.12747Z"/><path class="cls-2" d="M488.65625,657.12747c7.39891-36.79147,8.31249-66.69736,2.03018-66.45752l-5.61507.32926q-6.09842.35721-12.1311.79094-11.51865.828-22.79726,1.93288-12.14547,1.18971-24.01225,2.701-6.8139.868-13.53639,1.84149-4.26268.61776-8.48862,1.27766-10.69088,1.67-21.14561,3.61276-4.03026.74868-8.02488,1.5381-27.31942,5.39808-52.99631,12.6916-9.83205,2.79237-19.42352,5.86334-4.7702,1.52709-9.48072,3.12272-6.07481,2.05815-12.01123,4.2889a362.97288,362.97288,0,0,0-39.70076,17.6503q-9.41568,4.8918-18.41651,10.29787-3.42332,2.05606-6.7878,4.18731-12.97158,8.21564-25.10212,17.55917l-9.66633,7.443c-10.01985,9.09352-22.247,21.02624-27.17138,26.51715l-4.50476,5.21473q-9.513,11.01337-19.03988,22.84962-8.11728,10.09992-16.12739,20.72567-9.03536,11.99991-17.79369,24.58208-2.12616,3.05954-4.22939,6.14937-8.63763,12.69159-16.80877,25.8446Q67.92655,832.1773,60.7355,845.00462q-6.0168,10.75322-11.55385,21.68427-5.17371,10.23042-9.86022,20.57371-4.29747,9.49949-8.13095,19.06121a393.10115,393.10115,0,0,0-13.64686,39.94766q-2.7501,9.81747-4.85222,19.59749a269.25033,269.25033,0,0,0-5.3828,37.117q-.64629,9.02709-.58222,17.933a194.37111,194.37111,0,0,0,3.29806,34.647,172.61642,172.61642,0,0,0,5.04528,20.06385A164.15243,164.15243,0,0,0,28.763,1107.05649a171.68473,171.68473,0,0,0,21.00281,29.27539l9.90551,11.17442c14.12229,11.21863,37.04853,23.00257,50.94721,26.18652l12.87628-6.90837c1.95575-1.04889,3.86564-2.203,5.70732-3.4418,9.12333-6.13478,16.57152-14.33321,19.60581-22.06033a18.062,18.062,0,0,0,1.36966-8.70608c-2.11235-17.48925-4.96657-36.37482-7.87712-56.0059-2.93514-19.79461-5.928-40.34685-8.2754-60.98883-2.62415-23.07233-4.44235-46.25588-4.47356-68.619-.0127-9.00726.2646-17.88072.89571-26.56038a253.85525,253.85525,0,0,1,4.47576-33.11472,170.21794,170.21794,0,0,1,10.89347-34.65144,123.47806,123.47806,0,0,1,17.20345-28.227q2.84123-3.46878,5.97578-6.725a115.62042,115.62042,0,0,1,35.807-25.01182,142.71128,142.71128,0,0,1,15.44767-5.9517q2.63367-.847,5.36318-1.62069a198.22765,198.22765,0,0,1,36.56068-6.50121l7.97545-.70614c9.52935-.1758,24.50424-.42034,33.27754-.54344s42.23723,1.3167,55.32381,1.73218l12.61721.70312q6.04993.33738,12.2471.7411,3.12752.20359,6.29231.42424,5.4807.382,11.07493.81489,5.17785.40056,10.45265.84462,4.08123.34357,8.22072.713,5.27521.47076,10.64433.98392,5.26694.50339,10.625,1.04751,6.65439.67558,13.44828,1.41394,9.17414.99687,18.60349,2.108,1.58427.18666,3.176.37661,3.19462.38157,6.41826.77552l2.05269.25108C486.92563,790.57445,481.25734,693.919,488.65625,657.12747Z"/><path class="cls-3" d="M488.65625,657.12747c7.39891-36.79147,8.31249-66.69736,2.03018-66.45752l-5.61507.32926q-6.09842.35721-12.1311.79094-11.51865.828-22.79726,1.93288-12.14547,1.18971-24.01225,2.701-6.8139.868-13.53639,1.84149-4.26268.61776-8.48862,1.27766-10.69088,1.67-21.14561,3.61276-4.03026.74868-8.02488,1.5381-27.31942,5.39808-52.99631,12.6916-9.83205,2.79237-19.42352,5.86334-4.7702,1.52709-9.48072,3.12272-6.07481,2.05815-12.01123,4.2889a362.97288,362.97288,0,0,0-39.70076,17.6503q-9.41568,4.8918-18.41651,10.29787-3.42332,2.05606-6.7878,4.18731-12.97158,8.21564-25.10212,17.55917l-9.66633,7.443c-10.01985,9.09352-22.247,21.02624-27.17138,26.51715l-4.50476,5.21473q-9.513,11.01337-19.03988,22.84962-8.11728,10.09992-16.12739,20.72567-9.03536,11.99991-17.79369,24.58208-2.12616,3.05954-4.22939,6.14937-8.63763,12.69159-16.80877,25.8446Q67.92655,832.1773,60.7355,845.00462q-6.0168,10.75322-11.55385,21.68427-5.17371,10.23042-9.86022,20.57371-4.29747,9.49949-8.13095,19.06121a393.10115,393.10115,0,0,0-13.64686,39.94766q-2.7501,9.81747-4.85222,19.59749a269.25033,269.25033,0,0,0-5.3828,37.117q-.64629,9.02709-.58222,17.933a194.37111,194.37111,0,0,0,3.29806,34.647,172.61642,172.61642,0,0,0,5.04528,20.06385A164.15243,164.15243,0,0,0,28.763,1107.05649a171.68473,171.68473,0,0,0,21.00281,29.27539l9.90551,11.17442c14.12229,11.21863,37.04853,23.00257,50.94721,26.18652l12.87628-6.90837c1.95575-1.04889,3.86564-2.203,5.70732-3.4418,9.12333-6.13478,16.57152-14.33321,19.60581-22.06033a18.062,18.062,0,0,0,1.36966-8.70608c-2.11235-17.48925-4.96657-36.37482-7.87712-56.0059-2.93514-19.79461-5.928-40.34685-8.2754-60.98883-2.62415-23.07233-4.44235-46.25588-4.47356-68.619-.0127-9.00726.2646-17.88072.89571-26.56038a253.85525,253.85525,0,0,1,4.47576-33.11472,170.21794,170.21794,0,0,1,10.89347-34.65144,123.47806,123.47806,0,0,1,17.20345-28.227q2.84123-3.46878,5.97578-6.725a115.62042,115.62042,0,0,1,35.807-25.01182,142.71128,142.71128,0,0,1,15.44767-5.9517q2.63367-.847,5.36318-1.62069a198.22765,198.22765,0,0,1,36.56068-6.50121l7.97545-.70614c9.52935-.1758,24.50424-.42034,33.27754-.54344s42.23723,1.3167,55.32381,1.73218l12.61721.70312q6.04993.33738,12.2471.7411,3.12752.20359,6.29231.42424,5.4807.382,11.07493.81489,5.17785.40056,10.45265.84462,4.08123.34357,8.22072.713,5.27521.47076,10.64433.98392,5.26694.50339,10.625,1.04751,6.65439.67558,13.44828,1.41394,9.17414.99687,18.60349,2.108,1.58427.18666,3.176.37661,3.19462.38157,6.41826.77552l2.05269.25108C486.92563,790.57445,481.25734,693.919,488.65625,657.12747Z"/><path class="cls-4" d="M1463.87174,336.172a35.555,35.555,0,0,0-2.04551-11.15432c-2.43-6.2617-7.34738-10.56023-16.664-10.81048q-13.32951-.35844-26.65848-.70944-11.20419-.29526-22.40948-.58667-12.26644-.31921-24.534-.63512-10.84956-.27956-21.6991-.55775c-2.1803-.05589-4.54509-.052-6.384,1.01971a5.53089,5.53089,0,0,0-.71093.49223c-1.697,1.38751-2.32613,3.65158-2.8636,5.767-.50655,1.99427-1.88587,6.39383-3.72645,12.30149-1.06391,3.4162-2.28248,7.33674-3.57508,11.5882-4.08329,13.42335-8.909,30.14368-11.97367,44.69824-1.13462,5.38624-2.02729,10.47571-2.55206,14.99172-1.10368,9.50473-.5767,16.469,2.76528,18.31212a78.682,78.682,0,0,1,26.32594,23.25981,97.00289,97.00289,0,0,1,10.7341,19.293q6.66767,15.8139,7.28993,35.80852.179,5.73918-.1403,11.82193a184.78671,184.78671,0,0,1-3.04424,24.53q-1.48234,7.85307-3.37844,15.24941-9.56358,37.30217-29.65245,62.98723-24.07218,30.77922-63.25507,44.88462a187.44712,187.44712,0,0,1-29.00008,7.78079q-3.7328.69914-7.57165,1.28125-31.16243,4.727-82.9976,2.68638-37.95852-1.49406-87.00245-6.61656-2.7766-.28989-5.58856-.59162-3.06081-.32829-6.1636-.67035-2.92161-.32211-5.87912-.65632-1.48566-.16765-2.98126-.33889-2.25294-.25728-4.52631-.522-9.46913-1.10135-19.3089-2.32408-4.58127-.56946-9.24208-1.1648-4.05015-.51743-8.16161-1.05467-13.63278-1.78188-27.9312-3.78152-2.992-.41872-6.01335-.84655-3.44859-.48852-6.93529-.9897-2.61255-.37538-5.24663-.75763l-3.75351-.54481c-4.19783-.62217-11.29569,36.38462-15.773,82.23729l3.01441,42.19246,1.95436,27.356c-.45906,29.82844,2.82165,54.30364,7.29049,54.38934l3.985.01872q5.38666.02478,10.70979.00331,3.85377-.01569,7.6744-.05726,7.59237-.08094,15.05437-.26154,10.15767-.24529,20.07285-.67448,3.05916-.13215,6.09511-.28246,7.98926-.394,15.82053-.909,10.32423-.67889,20.37225-1.56866,4.97652-.4402,9.88342-.93217,4.955-.49719,9.83867-1.04613,20.5399-2.30922,39.8535-5.5462,5.59794-.939,11.0926-1.95517,16.28924-3.01288,31.672-6.71182,6.0048-1.44366,11.87148-2.99195,6.10091-1.60885,12.05266-3.33223,16.6936-4.83317,32.2128-10.5539,7.64954-2.82045,15.045-5.94978,13.36845-5.65576,25.91109-12.27947,13.25993-6.99083,25.61447-14.995a339.71248,339.71248,0,0,0,42.00064-32.08977q3.86786-3.45886,7.62524-7.02428,7.50867-7.1242,14.58151-14.657,10.6623-11.34786,20.35348-23.55466,5.404-6.79714,10.51314-13.83684,10.77912-14.84637,20.2673-30.67859,3.27873-5.45961,6.40776-11.02273,2.789-4.95912,5.45985-9.99559,5.35269-10.09042,10.23529-20.47047,3.66651-7.78824,7.0745-15.7221,5.114-11.90328,9.65472-24.09617,2.49572-6.69556,4.82184-13.46629,3.10471-9.03451,5.91116-18.186,1.40363-4.57548,2.73379-9.176c5.51675-19.07635,10.08835-38.45608,13.76618-57.94456q4.47439-23.70579,7.2474-47.69129,1.82124-15.74372,2.91-31.56038,1.26276-18.32135,1.54117-36.69086C1461.97206,359.36412,1464.35509,346.928,1463.87174,336.172Z"/><path class="cls-5" d="M1184.83417,156.91686v32.43848q-40.54212,11.2641-57.14838,20.5223a78.84893,78.84893,0,0,0-26.91291,24.16335q-10.31328,14.89523-14.61935,43.36164-4.33264,28.473-4.31936,92.01934v806.98979q0,59.58087,3.9871,88.37829t13.29032,44.35465a75.37716,75.37716,0,0,0,26.24839,25.81838q16.94516,10.25453,59.47419,21.51531v32.43847h-351v-32.35954q39.21569-10.573,55.55556-20.14216a76.881,76.881,0,0,0,26.14379-24.765q9.80393-15.19908,14.05229-43.91653,4.24182-28.72734,4.24836-90.80484v-947.012h-482v947.012q0,64.04879,4.29167,91.79544,4.28507,27.73676,14.19551,42.59573,9.90386,14.859,27.07052,24.765,17.16006,9.906,57.4423,20.47236v32.35954h-356v-32.43847q40.12988-10.59877,57.51948-20.19129a72.50062,72.50062,0,0,0,27.08767-25.15637q9.68467-15.56385,14.04545-44.02364,4.34072-28.473,4.3474-90.69533V369.422q0-62.219-4.3474-90.69533-4.36077-28.45648-13.711-43.36163-9.377-14.89521-26.41883-24.82536-17.05519-9.93015-58.52273-21.18431V156.91686Z"/><path class="cls-6" d="M1184.83417,156.91686v32.43848q-40.54212,11.2641-57.14838,20.5223a78.84893,78.84893,0,0,0-26.91291,24.16335q-10.31328,14.89523-14.61935,43.36164-4.33264,28.473-4.31936,92.01934v806.98979q0,59.58087,3.9871,88.37829t13.29032,44.35465a75.37716,75.37716,0,0,0,26.24839,25.81838q16.94516,10.25453,59.47419,21.51531v32.43847h-351v-32.35954q39.21569-10.573,55.55556-20.14216a76.881,76.881,0,0,0,26.14379-24.765q9.80393-15.19908,14.05229-43.91653,4.24182-28.72734,4.24836-90.80484v-947.012h-482v947.012q0,64.04879,4.29167,91.79544,4.28507,27.73676,14.19551,42.59573,9.90386,14.859,27.07052,24.765,17.16006,9.906,57.4423,20.47236v32.35954h-356v-32.43847q40.12988-10.59877,57.51948-20.19129a72.50062,72.50062,0,0,0,27.08767-25.15637q9.68467-15.56385,14.04545-44.02364,4.34072-28.473,4.3474-90.69533V369.422q0-62.219-4.3474-90.69533-4.36077-28.45648-13.711-43.36163-9.377-14.89521-26.41883-24.82536-17.05519-9.93015-58.52273-21.18431V156.91686Z"/><path class="cls-7" d="M1184.83417,156.91686v32.43848q-40.54212,11.2641-57.14838,20.5223a78.84893,78.84893,0,0,0-26.91291,24.16335q-10.31328,14.89523-14.61935,43.36164-4.33264,28.473-4.31936,92.01934v806.98979q0,59.58087,3.9871,88.37829t13.29032,44.35465a75.37716,75.37716,0,0,0,26.24839,25.81838q16.94516,10.25453,59.47419,21.51531v32.43847h-351v-32.35954q39.21569-10.573,55.55556-20.14216a76.881,76.881,0,0,0,26.14379-24.765q9.80393-15.19908,14.05229-43.91653,4.24182-28.72734,4.24836-90.80484v-947.012h-482v947.012q0,64.04879,4.29167,91.79544,4.28507,27.73676,14.19551,42.59573,9.90386,14.859,27.07052,24.765,17.16006,9.906,57.4423,20.47236v32.35954h-356v-32.43847q40.12988-10.59877,57.51948-20.19129a72.50062,72.50062,0,0,0,27.08767-25.15637q9.68467-15.56385,14.04545-44.02364,4.34072-28.473,4.3474-90.69533V369.422q0-62.219-4.3474-90.69533-4.36077-28.45648-13.711-43.36163-9.377-14.89521-26.41883-24.82536-17.05519-9.93015-58.52273-21.18431V156.91686Z"/><path class="cls-8" d="M1195.01253,149.06252a5.48292,5.48292,0,0,1-.64408.57671c-1.74579,1.32907-4.10881,1.42712-6.3052,1.47-11.39346.2223-100.18826,9.58068-104.24619-4.5374q-7.63827-27.05522-33.31659-45.45394-25.69776-18.39652-69.83134-20.24724Q862.59251,75.91913,820.887,179.60276q-41.74424,103.68506-58.79993,480.94393-14.16522,312.969-126.74875,492.375a367.032,367.032,0,0,1-30.5072,41.87549,336.26039,336.26039,0,0,1-35.22975,35.92348,458.08719,458.08719,0,0,1-59.25593,39.09366c-143.12061,79.736-407.24358,134.27967-467.79674-61.89281-6.92192-41.0164,53.46773-76.21988,99.305-48.56776,69.98224,55.52154,159.64016,125.98282,248.208,88.33466,69.11018-30.966,96.63434-98.27638,105.78692-169.61318q4.404-20.97864,8.339-44.31551,19.6749-116.68442,27.62454-292.32516Q549.65579,347.19412,666.48788,171.6093C751.87027,43.29794,904.27911,1.09953,1051.43427,7.27042a694.84092,694.84092,0,0,1,116.3534,14.83088c17.61645,3.7689,54.31025,1.82951,48.86624,28.24608q-9.56047,46.39115-19.19214,92.768C1197.02165,145.23767,1196.48107,147.52524,1195.01253,149.06252Z"/><path class="cls-9" d="M1195.01253,149.06252a5.48292,5.48292,0,0,1-.64408.57671c-1.74579,1.32907-4.10881,1.42712-6.3052,1.47-11.39346.2223-100.18826,9.58068-104.24619-4.5374q-7.63827-27.05522-33.31659-45.45394-25.69776-18.39652-69.83134-20.24724Q862.59251,75.91913,820.887,179.60276q-41.74424,103.68506-58.79993,480.94393-14.16522,312.969-126.74875,492.375a367.032,367.032,0,0,1-30.5072,41.87549,336.26039,336.26039,0,0,1-35.22975,35.92348,458.08719,458.08719,0,0,1-59.25593,39.09366c-143.12061,79.736-407.24358,134.27967-467.79674-61.89281-6.92192-41.0164,53.46773-76.21988,99.305-48.56776,69.98224,55.52154,159.64016,125.98282,248.208,88.33466,69.11018-30.966,96.63434-98.27638,105.78692-169.61318q4.404-20.97864,8.339-44.31551,19.6749-116.68442,27.62454-292.32516Q549.65579,347.19412,666.48788,171.6093C751.87027,43.29794,904.27911,1.09953,1051.43427,7.27042a694.84092,694.84092,0,0,1,116.3534,14.83088c17.61645,3.7689,54.31025,1.82951,48.86624,28.24608q-9.56047,46.39115-19.19214,92.768C1197.02165,145.23767,1196.48107,147.52524,1195.01253,149.06252Z"/><path class="cls-10" d="M1195.01253,149.06252a5.48292,5.48292,0,0,1-.64408.57671c-1.74579,1.32907-4.10881,1.42712-6.3052,1.47-11.39346.2223-100.18826,9.58068-104.24619-4.5374q-7.63827-27.05522-33.31659-45.45394-25.69776-18.39652-69.83134-20.24724Q862.59251,75.91913,820.887,179.60276q-41.74424,103.68506-58.79993,480.94393-14.16522,312.969-126.74875,492.375a367.032,367.032,0,0,1-30.5072,41.87549,336.26039,336.26039,0,0,1-35.22975,35.92348,458.08719,458.08719,0,0,1-59.25593,39.09366c-143.12061,79.736-407.24358,134.27967-467.79674-61.89281-6.92192-41.0164,53.46773-76.21988,99.305-48.56776,69.98224,55.52154,159.64016,125.98282,248.208,88.33466,69.11018-30.966,96.63434-98.27638,105.78692-169.61318q4.404-20.97864,8.339-44.31551,19.6749-116.68442,27.62454-292.32516Q549.65579,347.19412,666.48788,171.6093C751.87027,43.29794,904.27911,1.09953,1051.43427,7.27042a694.84092,694.84092,0,0,1,116.3534,14.83088c17.61645,3.7689,54.31025,1.82951,48.86624,28.24608q-9.56047,46.39115-19.19214,92.768C1197.02165,145.23767,1196.48107,147.52524,1195.01253,149.06252Z"/><path class="cls-11" d="M1459.25374,320.38689c-2.857-3.66947-7.30816-5.99768-14.09155-6.17993q-21.33286-.57318-42.66683-1.129-8.77229-.22918-17.54455-.45617-11.69637-.30311-23.39329-.60346-5.84819-.15031-11.69637-.30007c-2.17975-.05589-4.54509-.05231-6.384,1.01971a5.5029,5.5029,0,0,0-.71093.49223c-1.697,1.38751-2.32613,3.65158-2.8636,5.767-.73358,2.88789-3.29724,10.81983-6.44091,21.07062-2.61447,8.52576-5.63054,18.65542-8.32843,28.82142-2.21067,8.32864-4.20757,16.68152-5.59629,24.19665-2.62166,14.1873-3.07351,25.3887,1.30365,27.80308a78.30014,78.30014,0,0,1,15.1212,10.718,79.10045,79.10045,0,0,1,6.54973,6.68153,92.84982,92.84982,0,0,1,15.38911,25.15332,94.22956,94.22956,0,0,1,6.68838,26.87862,132.65555,132.65555,0,0,1,.422,21.4599,185.6138,185.6138,0,0,1-3.005,23.8217,212.02325,212.02325,0,0,1-12.87683,43.61906A160.88954,160.88954,0,0,1,1338.0195,600.828a136.64053,136.64053,0,0,1-24.47046,29.6363,132.99252,132.99252,0,0,1-14.99194,11.763q-4.62685,3.1248-9.56524,5.90656a149.21686,149.21686,0,0,1-16.15639,7.83889,187.13494,187.13494,0,0,1-43.6871,11.81257,293.71056,293.71056,0,0,1-30.04687,2.78768q-15.48717.7239-34.08651.42864-9.89-.15692-20.6606-.60235-22.99668-.9502-50.00759-3.21468-19.96155-1.67327-42.11389-4.0637-8.99515-.97085-18.3516-2.05952-24.0904-2.80392-50.5782-6.39164-12.15873-1.64684-24.82289-3.45886-7.09355-1.01544-14.34619-2.0821-6.95685-1.02369-14.05951-2.09448-5.32286-.80277-10.72858-1.63252-27.82238-4.27032-57.81566-9.25036-6.9502-1.15377-14.01752-2.3461-15.97645-2.69532-32.5481-5.585-18.5198-3.22968-37.7834-6.70245-16.20058-2.92079-32.927-6.01337-10.60512-1.9611-21.08291-3.77492-5.211-.9023-10.39079-1.768-24.29135-4.061-47.89026-7.3227-6.22809-.861-12.40813-1.66612-8.21587-1.07078-16.34669-2.04272-33.83379-4.04567-66.19214-6.38861-30.88609-2.23653-60.4282-2.92148-14.27744-.33119-28.23419-.29209-2.52139.0066-5.0323.02532l-1.68066.01267a53.2964,53.2964,0,0,0-6.32379.503l-2.3938.15775c-2.47748.16352-5.49575.27777-8.72283.35678l-1.67154.041c-1.90767.02938-2.33565,41.67076-.95109,92.53641s-3.88781,110.7123-1.61754,111.00241l2.11953.28879q3.39928.46292,6.82813.93905,1.72015.2391,3.448.48122,10.97342,1.53865,22.24735,3.21193,3.089.45837,6.20006.92721,29.992,4.516,62.07681,9.97136,27.80831,4.72744,57.18925,10.15966,24.0991,4.45574,47.46713,8.35811,6.88392,1.14964,13.70487,2.2514,26.36778,4.25916,51.78739,7.79979,19.37325,2.69822,38.19549,4.98018,28.98406,3.5142,56.662,6.039,22.7659,2.0763,44.64827,3.48474,24.55027,1.57995,47.988,2.31748,22.78455.71688,44.51625.63869,17.38215-.06276,34.09148-.63429,30.30318-1.0365,58.39567-3.74738,29.82426-2.87743,57.15721-7.64233a576.58,576.58,0,0,0,69.554-16.39355q12.85971-3.93211,25.0002-8.40766,10.76254-3.96762,21.01966-8.54531a335.3186,335.3186,0,0,0,33.897-17.47658q14.11419-8.32755,27.13741-17.84329,7.95861-5.80317,15.51838-12.01849a356.43608,356.43608,0,0,0,40.31529-38.89849q11.7262-13.21521,22.21228-27.492,11.88694-16.15047,22.22829-33.4861,4.8721-8.14708,9.41167-16.52157a509.68387,509.68387,0,0,0,33.01432-75.21109,598.01367,598.01367,0,0,0,18.32785-64.11651q2.66889-11.72861,4.89475-23.53594,4.69728-24.88683,7.51918-50.07924,1.22631-10.932,2.09854-21.89928,1.16417-14.62958,1.70082-29.29934.26845-7.33027.38-14.66467C1462.04774,354.47342,1467.82467,331.39475,1459.25374,320.38689Z"/><path class="cls-12" d="M1349.52924,321.71307l.07569.00189,11.6958.3,23.39111.60345,17.54248.456q21.32922.55719,42.65942,1.129c4.75733.12787,6.00147,1.72559,6.46973,2.327,3.8833,4.98761,2.48511,18.49628,1.46411,28.35986-.47607,4.59882-.92578,8.94269-.98633,12.85712-.07226,4.77332-.19824,9.63507-.37451,14.45062-.35058,9.58844-.91455,19.30219-1.676,28.87152-.57154,7.18225-1.26734,14.44208-2.06787,21.57825-1.84913,16.49213-4.34156,33.0921-7.40772,49.33881-1.46509,7.76172-3.08642,15.55774-4.81909,23.17157a589.9059,589.9059,0,0,1-18.01978,63.04345,500.96083,500.96083,0,0,1-32.3623,73.73578c-2.96094,5.45984-6.05737,10.89575-9.20313,16.15589-6.79663,11.36316-14.09765,22.36218-21.69995,32.6914-6.86377,9.32556-14.144,18.33655-21.63842,26.78247a347.85419,347.85419,0,0,1-39.18335,37.809c-4.89942,4.02515-9.967,7.95-15.062,11.66529-8.47461,6.17932-17.33252,12.00341-26.32714,17.31054a326.85757,326.85757,0,0,1-32.887,16.95557c-6.65576,2.96667-13.522,5.75793-20.40722,8.29626-7.88355,2.90613-16.11524,5.67432-24.46534,8.22754a569.31658,569.31658,0,0,1-68.34765,16.10523c-17.88208,3.11767-36.85791,5.65442-56.40015,7.53992-18.43725,1.77893-37.87622,3.02612-57.777,3.7069-10.98742.37574-22.35473.58716-33.786.62842q-2.13994.00769-4.29.00781c-12.92688,0-26.34289-.21582-39.87536-.6416-15.44617-.48608-31.48133-1.26049-47.6604-2.30163-14.42713-.92847-29.35938-2.094-44.38172-3.46424-18.28735-1.66858-37.25183-3.68982-56.36767-6.00756-12.3982-1.50257-25.1897-3.17041-38.01917-4.95728-16.79223-2.33887-34.14355-4.95215-51.57348-7.7677-4.40174-.71033-8.99451-1.46472-13.65125-2.24243-15.42053-2.57471-31.33325-5.37659-47.29578-8.328-19.51159-3.60791-38.80065-7.03455-57.331-10.18494-21.33765-3.6283-42.28638-6.99329-62.26245-10.0011q-3.12213-.47058-6.22266-.93054c-7.51184-1.115-15.02368-2.19934-22.32861-3.22363l-3.45923-.48279q-.43359-.06024-.86645-.12012c.11169-5.37561.43249-13.19238.7467-20.84521.92175-22.45081,2.1842-53.19837,1.41016-81.63208-1.13684-41.76752-.92786-70.13678-.32532-82.55q1.24969-.06227,2.332-.13373l2.3938-.15772q.44787-.02957.89172-.09906a44.03446,44.03446,0,0,1,4.84986-.38256l1.67944-.01264q2.48712-.01841,4.98584-.02508,1.43427-.004,2.8717-.004c8.26038,0,16.7063.09863,25.10291.29333,19.44263.45093,39.60864,1.426,59.938,2.89814,21.31762,1.54357,43.43139,3.678,65.727,6.344,5.37158.64227,10.83618,1.32507,16.24194,2.0296,4.09863.53412,8.24719,1.09107,12.33093,1.65582,15.56812,2.15174,31.58655,4.60108,47.61121,7.28q5.15076.86079,10.333,1.758c6.92761,1.19958,13.98315,2.46277,20.9707,3.75494,11.09607,2.0517,22.18909,4.07758,32.97119,6.02143,12.845,2.31549,25.57593,4.57379,37.8396,6.7124,11,1.91815,21.96887,3.80041,32.60254,5.59442q7.07978,1.19439,14.04309,2.35046c19.92444,3.30835,39.417,6.427,57.93665,9.26954q5.41882.83166,10.75476,1.63659,7.12023,1.07337,14.0946,2.09973,7.27131,1.06989,14.38526,2.08765c8.42309,1.2052,16.7998,2.37256,24.89733,3.46924,17.64393,2.38989,34.72352,4.54809,50.764,6.415,6.21.72278,12.41236,1.41882,18.43482,2.06885,14.77905,1.59472,29.02832,2.96972,42.35156,4.08654,18.06226,1.51429,35.0293,2.60462,50.43018,3.24121,7.23754.29908,14.27417.504,20.91455.6095,3.62231.0575,7.21313.08667,10.67285.08667,8.4978,0,16.58594-.17663,24.03979-.525a304.96773,304.96773,0,0,0,31.07788-2.88977,197.983,197.983,0,0,0,46.0149-12.46033,159.93546,159.93546,0,0,0,17.23779-8.36524c3.511-1.97741,6.96094-4.108,10.25464-6.33239a143.64974,143.64974,0,0,0,16.11792-12.647,147.2563,147.2563,0,0,0,26.25928-31.79059,171.67509,171.67509,0,0,0,11.80273-22.94732,222.9918,222.9918,0,0,0,13.49853-45.67224,196.46081,196.46081,0,0,0,3.16236-25.10706,143.27214,143.27214,0,0,0-.4607-23.07684,104.62925,104.62925,0,0,0-7.41918-29.7168,103.26,103.26,0,0,0-17.064-27.83758,89.52506,89.52506,0,0,0-7.37744-7.52478,88.438,88.438,0,0,0-14.97437-10.92017c-.25586-2.02661-.40063-7.1579,1.67139-18.37091,1.21021-6.54932,3.03638-14.43842,5.42822-23.44855,2.20362-8.30371,4.8169-17.34546,8.22339-28.45453,1.11231-3.62732,2.15186-6.96307,3.0625-9.88543,1.72046-5.52021,2.8794-9.23963,3.44458-11.40137m-.88452-10.01337a10.23587,10.23587,0,0,0-5.16748,1.03833,5.476,5.476,0,0,0-.71094.49225c-1.697,1.38745-2.32617,3.65149-2.86377,5.76691-.7334,2.88788-3.29712,10.81976-6.44091,21.07055-2.61451,8.52588-5.63038,18.65546-8.32837,28.82148-2.2107,8.32867-4.20752,16.68145-5.5962,24.19665-2.62182,14.18732-3.07348,25.38867,1.30347,27.8031a78.29415,78.29415,0,0,1,15.12134,10.718,79.14235,79.14235,0,0,1,6.5498,6.68152,92.85234,92.85234,0,0,1,15.38892,25.15332,94.22713,94.22713,0,0,1,6.68848,26.87866,132.67175,132.67175,0,0,1,.42212,21.45984,185.62923,185.62923,0,0,1-3.00513,23.82178,212.02246,212.02246,0,0,1-12.87671,43.619,160.90282,160.90282,0,0,1-11.10986,21.60682,136.6334,136.6334,0,0,1-24.47046,29.63641,132.98937,132.98937,0,0,1-14.99195,11.76306q-4.6267,3.12461-9.56518,5.90643a149.19238,149.19238,0,0,1-16.1565,7.839,187.13457,187.13457,0,0,1-43.687,11.8125,293.69693,293.69693,0,0,1-30.04687,2.78772q-11.001.51417-23.57251.51416-5.12659,0-10.51392-.08557-9.89025-.15691-20.66064-.60217-22.99659-.9505-50.00757-3.21484-19.96179-1.67322-42.114-4.06373-8.99525-.97082-18.35157-2.05944-24.09045-2.8039-50.57812-6.39161-12.15876-1.64685-24.823-3.459-7.0935-1.01532-14.34619-2.082-6.95655-1.02375-14.05945-2.09448-5.32287-.80274-10.72852-1.63257-27.82251-4.2704-57.81567-9.25025-6.95031-1.154-14.01758-2.34613-15.97632-2.69539-32.54809-5.58508-18.51984-3.22962-37.78345-6.70239-16.20044-2.92082-32.927-6.01349-10.6051-1.961-21.08289-3.7749-5.211-.90216-10.39087-1.76789-24.29131-4.061-47.89026-7.32263-6.228-.86124-12.40808-1.66614-8.21576-1.07079-16.34668-2.04284-33.83385-4.04553-66.19214-6.38849-30.886-2.23663-60.42822-2.92163-12.79614-.29664-25.33484-.2959-1.45166,0-2.89929.00391-2.52155.00658-5.03235.02533l-1.68066.01269a53.2773,53.2773,0,0,0-6.32373.50293l-2.3938.15771c-2.47754.16364-5.49573.2779-8.7229.35682l-1.67151.04107c-1.90771.0293-2.33569,41.67066-.95105,92.53638,1.38452,50.8656-3.88782,110.71228-1.61755,111.00244l2.1195.28858q3.39936.46306,6.82813.9392,1.7199.23915,3.448.48121,10.9735,1.53863,22.24743,3.21191,3.089.45831,6.2.92725,29.99212,4.51593,62.07691,9.97131,27.80823,4.7276,57.18921,10.15967,24.09906,4.45587,47.46716,8.35815,6.88384,1.14954,13.70483,2.25134,26.36775,4.25922,51.78736,7.79969,19.37329,2.69843,38.19555,4.98034,28.984,3.51417,56.662,6.03894,22.76588,2.07642,44.6482,3.48475,24.55023,1.58,47.988,2.3175,20.52192.64563,40.18994.64648,2.16852,0,4.32618-.00781,17.38219-.06281,34.09167-.63428,30.303-1.03656,58.39563-3.74731,29.82422-2.87749,57.15723-7.64233a576.6069,576.6069,0,0,0,69.55395-16.39356q12.85986-3.93219,25.00025-8.40771,10.76256-3.96771,21.01977-8.54541a335.31418,335.31418,0,0,0,33.897-17.47644q14.11415-8.32764,27.13746-17.84327,7.95849-5.80333,15.51831-12.01855a356.43981,356.43981,0,0,0,40.31518-38.89844q11.72644-13.21527,22.2124-27.49206,11.88684-16.15046,22.22828-33.48609,4.87206-8.14708,9.41162-16.5216a509.6838,509.6838,0,0,0,33.0144-75.21106,598.0246,598.0246,0,0,0,18.32788-64.11658q2.66895-11.72837,4.89478-23.53583,4.697-24.88687,7.519-50.07922,1.22645-10.93223,2.09863-21.89935,1.1642-14.62959,1.70069-29.29932.26842-7.33017.38012-14.66467c.20777-13.42517,5.98462-36.50385-2.58618-47.51172-2.85718-3.66962-7.30835-5.99774-14.09155-6.18q-21.3329-.57321-42.667-1.12908-8.77222-.229-17.54444-.45612-11.6964-.303-23.39331-.60345-5.84838-.15024-11.69653-.3c-.40064-.01026-.80762-.01856-1.21631-.01856Z"/></g></g></svg>