<svg id="Camada_1" data-name="Camada 1" xmlns="http://www.w3.org/2000/svg" xmlns:xlink="http://www.w3.org/1999/xlink" viewBox="0 0 1972.51793 1113.56478"><defs><style>.cls-1,.cls-3,.cls-4{font-size:427px;font-family:EliteDangerSemi-Bold, Elite Danger Semi-Bold;font-weight:700;letter-spacing:0.085em;}.cls-1{fill:#830096;}.cls-2{letter-spacing:0.07501em;}.cls-3{stroke:#000;}.cls-3,.cls-4,.cls-6,.cls-8,.cls-9{stroke-miterlimit:10;}.cls-4,.cls-5{fill:none;}.cls-4{stroke:#7b3365;}.cls-6,.cls-9{stroke-width:4px;}.cls-6{fill:url(#Gradiente_sem_nome_489);stroke:url(#Gradiente_sem_nome_776);}.cls-7{fill:url(#Gradiente_sem_nome_765);}.cls-8{stroke-width:5px;fill:url(#Gradiente_sem_nome_724);stroke:url(#Gradiente_sem_nome_722);}.cls-9{fill:url(#Gradiente_sem_nome_699);stroke:url(#Gradiente_sem_nome_682);}.cls-10{fill:url(#Gradiente_sem_nome_797);}.cls-11{fill:url(#Gradiente_sem_nome_659);}</style><linearGradient id="Gradiente_sem_nome_489" x1="641.94826" y1="415.72156" x2="872.62411" y2="415.72156" gradientUnits="userSpaceOnUse"><stop offset="0" stop-color="#181824"/><stop offset="1" stop-color="#3d2259"/></linearGradient><linearGradient id="Gradiente_sem_nome_776" x1="639.94826" y1="415.78005" x2="874.62411" y2="415.78005" gradientUnits="userSpaceOnUse"><stop offset="0" stop-color="#760326"/><stop offset="1" stop-color="#c30540"/></linearGradient><linearGradient id="Gradiente_sem_nome_765" x1="2570.06634" y1="1825.94329" x2="3052.82536" y2="1825.94329" gradientTransform="translate(2359.77426 3291.54947) rotate(-145.37991)" gradientUnits="userSpaceOnUse"><stop offset="0" stop-color="#09050d"/><stop offset="0.01558" stop-color="#0b060f"/><stop offset="0.18023" stop-color="#180d23"/><stop offset="0.34582" stop-color="#20122f"/><stop offset="0.51269" stop-color="#231333"/><stop offset="0.7791" stop-color="#211430"/><stop offset="0.95808" stop-color="#1a1727"/><stop offset="1" stop-color="#181824"/></linearGradient><linearGradient id="Gradiente_sem_nome_724" x1="670.63333" y1="563.11667" x2="1260.77784" y2="165.05918" gradientUnits="userSpaceOnUse"><stop offset="0.26142" stop-color="#09050d"/><stop offset="0.35573" stop-color="#0b0811"/><stop offset="0.44392" stop-color="#13111c"/><stop offset="0.48477" stop-color="#181824"/></linearGradient><linearGradient id="Gradiente_sem_nome_722" x1="671.97388" y1="577.4965" x2="1259.4373" y2="150.67935" gradientUnits="userSpaceOnUse"><stop offset="0.29442" stop-color="#c30540"/><stop offset="0.40863" stop-color="#760326"/></linearGradient><linearGradient id="Gradiente_sem_nome_699" x1="658.6219" y1="317.58991" x2="1213.97173" y2="317.58991" gradientUnits="userSpaceOnUse"><stop offset="0.17259" stop-color="#181824"/><stop offset="0.58556" stop-color="#171622"/><stop offset="0.73414" stop-color="#12111b"/><stop offset="0.83984" stop-color="#0b0710"/><stop offset="0.85607" stop-color="#09050d"/></linearGradient><linearGradient id="Gradiente_sem_nome_682" x1="791.95733" y1="660.69815" x2="1076.20692" y2="-42.84427" gradientUnits="userSpaceOnUse"><stop offset="0.20305" stop-color="#760326"/><stop offset="0.25737" stop-color="#84032b"/><stop offset="0.4058" stop-color="#a60436"/><stop offset="0.52838" stop-color="#bb053d"/><stop offset="0.60914" stop-color="#c30540"/></linearGradient><linearGradient id="Gradiente_sem_nome_797" x1="2952.94597" y1="1770.08456" x2="2460.17113" y2="1775.41788" gradientTransform="translate(2359.77426 3291.54947) rotate(-145.37991)" gradientUnits="userSpaceOnUse"><stop offset="0.01117" stop-color="#231333"/><stop offset="0.04202" stop-color="#201430"/><stop offset="0.1681" stop-color="#1a1727"/><stop offset="0.35951" stop-color="#181824"/><stop offset="0.37192" stop-color="#161621"/><stop offset="0.4527" stop-color="#0f0c16"/><stop offset="0.56626" stop-color="#0a070f"/><stop offset="0.8819" stop-color="#09050d"/></linearGradient><linearGradient id="Gradiente_sem_nome_659" x1="852.51703" y1="274.69994" x2="1330.56947" y2="274.69994" gradientUnits="userSpaceOnUse"><stop offset="0.02538" stop-color="#760326"/><stop offset="0.07596" stop-color="#88032c"/><stop offset="0.15708" stop-color="#9e0433"/><stop offset="0.253" stop-color="#af0439"/><stop offset="0.37163" stop-color="#ba053d"/><stop offset="0.53804" stop-color="#c1053f"/><stop offset="1" stop-color="#c30540"/></linearGradient></defs><text class="cls-1" transform="translate(127.57106 998.80948)">A<tspan class="cls-2" x="269.00928" y="0">l</tspan><tspan x="491.04834" y="0">gorius</tspan></text><text class="cls-3" transform="translate(127.57106 998.80948)">A<tspan class="cls-2" x="269.00928" y="0">l</tspan><tspan x="491.04834" y="0">gorius</tspan></text><text class="cls-4" transform="translate(127.57106 998.80948)">A<tspan class="cls-2" x="269.00928" y="0">l</tspan><tspan x="491.04834" y="0">gorius</tspan></text><rect class="cls-5" x="1154.70924" y="133.42388" width="55.762" height="55.762"/><rect class="cls-5" x="1159.43483" y="138.14947" width="46.31081" height="46.31081"/><path class="cls-6" d="M869.692,309.37057c3.49642-17.38616,3.92814-31.51846.95938-31.40512l-2.65346.15559q-2.88186.16879-5.73266.37377-5.44324.39126-10.77306.9134-5.73945.5622-11.34721,1.27636-3.22.41019-6.39675.87021-2.01436.29194-4.01138.60378-5.05206.78915-9.99255,1.70724-1.90454.35379-3.79223.72684-12.91,2.55091-25.0439,5.99754-4.64622,1.31955-9.17877,2.77077-2.25419.72163-4.4802,1.47567-2.8707.9726-5.676,2.02676a171.5252,171.5252,0,0,0-18.761,8.34082q-4.44946,2.31167-8.70289,4.86635-1.61774.97161-3.20765,1.97875-6.12982,3.88237-11.86224,8.29775l-4.56791,3.51727c-4.735,4.29723-10.513,9.93614-12.84009,12.53092l-2.12877,2.46427q-4.49547,5.20448-8.99747,10.7978-3.83589,4.77282-7.62115,9.79411-4.26973,5.67068-8.40857,11.61649-1.00473,1.44582-1.99864,2.90594-4.08178,5.99754-7.94314,12.21311-3.66145,5.905-7.05965,11.96671-2.8433,5.08152-5.45988,10.2471-2.44489,4.83447-4.65954,9.7223-2.0308,4.48906-3.84235,9.00755a185.76374,185.76374,0,0,0-6.449,18.87764q-1.29958,4.63934-2.293,9.261a127.23716,127.23716,0,0,0-2.54369,17.54q-.30541,4.26582-.27513,8.47442a91.85109,91.85109,0,0,0,1.55853,16.37278,81.57112,81.57112,0,0,0,2.38419,9.48136,77.572,77.572,0,0,0,6.47088,14.85092,81.13142,81.13142,0,0,0,9.92508,13.83436l4.68094,5.28057c6.67362,5.30147,17.50762,10.87008,24.07557,12.37469l6.08481-3.26462c.92421-.49566,1.82675-1.041,2.697-1.62645,4.31131-2.899,7.831-6.77329,9.26491-10.42481a8.53543,8.53543,0,0,0,.64724-4.11415c-.99821-8.2647-2.347-17.18926-3.72241-26.46611-1.387-9.35412-2.80133-19.06627-3.91061-28.82084a293.29275,293.29275,0,0,1-2.114-32.42656c-.006-4.25647.125-8.4497.42327-12.55136a119.96152,119.96152,0,0,1,2.11506-15.64866,80.43861,80.43861,0,0,1,5.14781-16.37487,58.35087,58.35087,0,0,1,8.12965-13.339q1.34265-1.6392,2.82392-3.178a54.63737,54.63737,0,0,1,16.9209-11.81957,67.44024,67.44024,0,0,1,7.29994-2.81254q1.24456-.40023,2.53442-.76587a93.674,93.674,0,0,1,17.2771-3.0722l3.76887-.3337c4.50318-.08307,11.5797-.19863,15.72561-.25681s19.9596.62222,26.14378.81856l5.96238.33227q2.859.15944,5.78748.35022,1.47794.09619,2.97349.20047,2.59.18051,5.23356.38509,2.44684.18929,4.9395.39913,1.92863.16236,3.88478.337,2.49285.22245,5.03008.465,2.48894.23787,5.02094.495,3.1446.31926,6.35511.66817,4.33533.47107,8.79126.99614.74865.08821,1.50084.178,1.50965.18032,3.033.36648l.97.11865C868.87415,372.43218,866.19554,326.75673,869.692,309.37057Z"/><path class="cls-7" d="M1330.53914,157.70008a16.80155,16.80155,0,0,0-.96663-5.27108c-1.1483-2.959-3.47207-4.99033-7.87474-5.10859q-6.299-.16938-12.59772-.33525-5.29464-.13953-10.58981-.27724-5.79662-.15084-11.59376-.30013-5.12706-.13211-10.25411-.26357a5.74131,5.74131,0,0,0-3.01682.48187,2.61387,2.61387,0,0,0-.336.23261,4.91361,4.91361,0,0,0-1.35322,2.72524c-.23937.94242-.89119,3.02147-1.761,5.81319-.50276,1.61436-1.07861,3.46705-1.68944,5.47611-1.92959,6.34333-4.21,14.24468-5.65827,21.12257-.53617,2.54532-.958,4.95039-1.206,7.08448-.52155,4.49155-.27252,7.78258,1.30676,8.65356a37.18191,37.18191,0,0,1,12.44057,10.99164,45.83927,45.83927,0,0,1,5.0725,9.1171,47.02154,47.02154,0,0,1,3.44493,16.92165q.08457,2.7121-.06631,5.58656a87.32069,87.32069,0,0,1-1.43858,11.5919q-.7005,3.711-1.59651,7.20625-4.51936,17.62749-14.01255,29.76521a64.92491,64.92491,0,0,1-29.89177,21.21064,88.57982,88.57982,0,0,1-13.70426,3.67689q-1.764.33037-3.57805.60546-14.7261,2.23382-39.22129,1.26947-17.93765-.706-41.11382-3.12671-1.31211-.137-2.64092-.27958-1.44642-.15513-2.91267-.31678-1.38063-.15221-2.77823-.31015-.70206-.07923-1.40883-.16014-1.06464-.12157-2.139-.24667-4.47471-.52044-9.12459-1.09826-2.16494-.2691-4.36744-.55044-1.91393-.24452-3.85684-.49839-6.4423-.842-13.19915-1.787-1.41392-.19788-2.84166-.4-1.62967-.23085-3.27734-.46769-1.23459-.17739-2.47935-.358l-1.77375-.25746c-1.98372-.294-5.33789,17.19389-7.45369,38.862l1.42448,19.93844.92356,12.92733c-.21694,14.0957,1.33339,25.66169,3.44518,25.70219l1.88313.00884q2.54552.01172,5.061.00156,1.82113-.00741,3.6266-.02706,3.58785-.03823,7.11409-.12359,4.80011-.1159,9.48561-.31873,1.44562-.06244,2.8803-.13348,3.7754-.18616,7.47614-.42957,4.87881-.32082,9.6271-.74129,2.3517-.208,4.6705-.4405,2.34152-.235,4.64935-.49436,9.70634-1.09125,18.83315-2.62091,2.64535-.44376,5.24191-.92394,7.69763-1.42375,14.9669-3.17173,2.83761-.68221,5.61-1.41387,2.883-.76029,5.69559-1.57468,7.88873-2.284,15.22246-4.98734,3.61486-1.33283,7.10964-2.81163,6.3174-2.67267,12.24454-5.80278,6.26609-3.30357,12.10435-7.086a160.53409,160.53409,0,0,0,19.8478-15.16432q1.82778-1.63452,3.60337-3.31939,3.5483-3.36662,6.89063-6.92628,5.03858-5.36254,9.61823-11.131,2.55374-3.21207,4.96808-6.53874,5.09377-7.01578,9.5775-14.49745,1.5494-2.58,3.02805-5.20889,1.318-2.34348,2.5801-4.72351,2.52947-4.76832,4.83678-9.67351,1.73265-3.6804,3.34312-7.42963,2.4167-5.625,4.56243-11.38687,1.17938-3.16406,2.27861-6.36362,1.46717-4.26934,2.79337-8.594.6633-2.16219,1.29188-4.33621c2.607-9.01471,4.76734-18.17278,6.50534-27.38224q2.1144-11.2024,3.42482-22.537.86064-7.43983,1.37515-14.91415.59673-8.65793.7283-17.33861C1329.64143,168.65972,1330.76755,162.78291,1330.53914,157.70008Z"/><path class="cls-8" d="M1198.67733,72.99138V88.32049q-19.15855,5.32294-27.006,9.698a37.2608,37.2608,0,0,0-12.71794,11.41862q-4.87365,7.03887-6.90851,20.49094-2.04744,13.45519-2.04116,43.4846V554.7632q0,28.1555,1.88414,41.764t6.28047,20.96021a35.62013,35.62013,0,0,0,12.40392,12.20071q8.0076,4.84587,28.10508,10.16726v15.32911H1032.809V639.89266q18.53174-4.99636,26.2533-9.51837a36.33072,36.33072,0,0,0,12.35449-11.70291q4.63293-7.18247,6.64054-20.75316,2.00451-13.57538,2.00761-42.91067V107.48821H852.29135V555.00755q0,30.26685,2.02807,43.37879,2.02494,13.10725,6.70822,20.129a37.61033,37.61033,0,0,0,12.79242,11.70292q8.10915,4.68115,27.1449,9.6744v15.29181H732.73384V639.85536q18.96375-5.00854,27.18137-9.54158a34.26084,34.26084,0,0,0,12.80053-11.88788q4.57658-7.35483,6.63731-20.80378,2.05125-13.4552,2.0544-42.85892V173.41265q0-29.40216-2.0544-42.85892-2.06073-13.44738-6.47928-20.49094A35.47786,35.47786,0,0,0,760.3893,98.33133q-8.05959-4.69258-27.65546-10.01084V72.99138Z"/><path class="cls-9" d="M1203.48721,69.27974a2.59045,2.59045,0,0,1-.30437.27253,4.99176,4.99176,0,0,1-2.97957.69465c-5.38409.105-47.3449,4.52744-49.26251-2.14419q-3.60954-12.78519-15.74407-21.47968-12.14371-8.69345-32.99945-9.568-55.79821-2.33988-75.50652,46.65679-19.72664,48.99734-27.78646,227.27453-6.69392,147.89643-59.89631,232.6764a173.44383,173.44383,0,0,1-14.41646,19.78866,158.90346,158.90346,0,0,1-16.64814,16.976,216.47415,216.47415,0,0,1-28.00194,18.47407c-67.633,37.68-192.44675,63.45511-221.06171-29.248-3.271-19.38268,25.26667-36.01841,46.9275-22.95115,33.07076,26.23722,75.43944,59.53436,117.293,41.74337,32.65866-14.63329,45.66546-46.44142,49.9906-80.15229q2.08114-9.91365,3.94065-20.94171,9.29757-55.1403,13.05424-138.141,8.43218-186.302,63.64226-269.27624c40.34825-60.63473,112.37046-80.576,181.91-77.65987A328.354,328.354,0,0,1,1190.62185,9.283c8.32482,1.781,25.66482.86455,23.0922,13.348q-4.5179,21.92257-9.06943,43.83839A5.65407,5.65407,0,0,1,1203.48721,69.27974Z"/><path class="cls-10" d="M1328.35686,150.24067c-1.35009-1.734-3.45354-2.83426-6.65909-2.92039q-10.08105-.27085-20.16261-.53352-4.14543-.1083-8.29085-.21557-5.52722-.14324-11.05471-.28517-2.76362-.071-5.52723-.1418a5.74044,5.74044,0,0,0-3.01682.48187,2.60087,2.60087,0,0,0-.336.23261,4.91361,4.91361,0,0,0-1.35322,2.72524c-.34666,1.36471-1.55814,5.113-3.04371,9.95712-1.2355,4.02893-2.66077,8.8158-3.93568,13.61983-1.04467,3.93578-1.98833,7.883-2.64458,11.43436-1.23889,6.70434-1.45242,11.99767.61605,13.1386a37.00237,37.00237,0,0,1,7.14567,5.06488,37.382,37.382,0,0,1,3.09513,3.15742,43.87685,43.87685,0,0,1,7.27227,11.88644,44.52887,44.52887,0,0,1,3.16066,12.70174,62.68746,62.68746,0,0,1,.19943,10.14108,87.71221,87.71221,0,0,1-1.42,11.25716,100.19308,100.19308,0,0,1-6.08507,20.6126,76.02954,76.02954,0,0,1-5.25,10.21054,64.57077,64.57077,0,0,1-11.56374,14.00491,62.847,62.847,0,0,1-7.08459,5.55872q-2.18646,1.47666-4.52014,2.7912a70.51245,70.51245,0,0,1-7.63485,3.70434,88.43209,88.43209,0,0,1-20.64475,5.58214,138.7948,138.7948,0,0,1-14.19893,1.31735q-7.3186.34209-16.1079.20256-4.67362-.07416-9.76336-.28465-10.86729-.449-23.63155-1.51913-9.433-.79071-19.90131-1.92034-4.25075-.45878-8.67222-.97324-11.38414-1.325-23.9012-3.02043-5.74572-.77823-11.73028-1.63452-3.35212-.47985-6.77943-.98391-3.28752-.48377-6.644-.98977-2.51538-.37935-5.06989-.77146-13.14773-2.018-27.32133-4.37134-3.28438-.54523-6.62411-1.10868-7.54983-1.27369-15.38091-2.63924-8.75171-1.52622-17.8549-3.16731-7.65573-1.38025-15.56-2.84168-5.01155-.92673-9.96292-1.78387-2.46252-.42637-4.91027-.83547-11.4791-1.919-22.631-3.46041-2.94313-.40688-5.86357-.78734-3.8825-.506-7.72478-.96531-15.98849-1.91181-31.27972-3.019-14.59551-1.0569-28.55591-1.38058-6.74692-.1565-13.34233-.138-1.19151.00312-2.37806.012l-.79421.006a25.18423,25.18423,0,0,0-2.98837.23768l-1.13121.07454c-1.17075.07728-2.59707.13127-4.12205.16861l-.78991.01938c-.90148.01388-1.10373,19.69191-.44944,43.72894s-1.83722,52.31813-.76439,52.45523l1.00161.13647q1.60636.21875,3.2267.44375.81286.113,1.6294.22741,5.18559.72711,10.51319,1.51782,1.45973.21661,2.9299.43817,14.173,2.13408,29.335,4.71206,13.14108,2.234,27.02532,4.801,11.38826,2.10559,22.431,3.9497,3.25306.54328,6.47636,1.06392,12.46035,2.01272,24.47262,3.68587,9.155,1.27506,18.04963,2.35343,13.69669,1.66067,26.77615,2.85377,10.75825.98118,21.099,1.64675,11.60147.74661,22.67719,1.09514,10.76706.33878,21.03657.30183,8.21409-.02967,16.11025-.29975,14.32005-.4898,27.59542-1.77086,14.09373-1.35975,27.01017-3.61145a272.46846,272.46846,0,0,0,32.86839-7.74692q6.077-1.85816,11.81408-3.97312,5.08594-1.87494,9.933-4.03817a158.459,158.459,0,0,0,16.01836-8.25872q6.66979-3.93525,12.824-8.432,3.76091-2.74235,7.33335-5.67945a168.43817,168.43817,0,0,0,19.05137-18.38184q5.54133-6.245,10.49662-12.9916,5.61728-7.63206,10.50418-15.82417,2.30237-3.85,4.44758-7.80742a240.85565,240.85565,0,0,0,15.60122-35.54171,282.59868,282.59868,0,0,0,8.661-30.29885q1.2612-5.54245,2.31306-11.12212,2.21973-11.76051,3.55325-23.66542.57951-5.166.99169-10.34871.55014-6.91334.80374-13.84567.12686-3.464.17959-6.92993C1329.67719,166.34857,1332.40713,155.44254,1328.35686,150.24067Z"/><path class="cls-11" d="M1280.40535,156.24353l1.52719.03915,11.05287.28513,8.2887.2155q9.616.2511,19.233.50862a55.09457,55.09457,0,0,1-.43343,8.71038c-.23718,2.29169-.46126,4.45624-.4935,6.539-.03363,2.223-.09219,4.48231-.17406,6.71613-.16289,4.45518-.42488,8.96955-.77888,13.4178-.26537,3.33544-.58869,6.70907-.96088,10.0275-.8595,7.66482-2.01756,15.37794-3.44206,22.92513-.67975,3.60131-1.43244,7.22087-2.23724,10.75787a273.468,273.468,0,0,1-8.35294,29.22582,231.48232,231.48232,0,0,1-14.94913,34.06637c-1.36394,2.51494-2.79031,5.01894-4.23912,7.44157-3.126,5.22643-6.48237,10.28312-9.97587,15.02962-3.14858,4.27787-6.48706,8.41019-9.92257,12.282a159.10017,159.10017,0,0,1-17.91963,17.29231c-2.23861,1.83913-4.55243,3.63113-6.87724,5.32625-3.86719,2.81988-7.9092,5.47763-12.01363,7.89931a149.15382,149.15382,0,0,1-15.00813,7.73769c-3.03918,1.35463-6.17513,2.6295-9.32043,3.78906-3.63263,1.33907-7.42763,2.61519-11.27938,3.793a263.74064,263.74064,0,0,1-31.66213,7.4585c-8.31812,1.45032-17.15087,2.63095-26.253,3.50912-8.60575.83033-17.682,1.41251-26.97682,1.73044-5.13875.17575-10.45612.27463-15.80512.29395q-1.00153.00366-2.00675.00369c-6.053,0-12.33744-.10114-18.67856-.30063-7.24188-.22787-14.76138-.59106-22.34957-1.07944-6.77012-.43562-13.77931-.98275-20.83237-1.626-8.59006-.78388-17.49963-1.73349-26.48175-2.82256-5.82875-.70637-11.84219-1.49044-17.87319-2.33044-7.90131-1.10056-16.06274-2.32975-24.25862-3.65363q-3.19661-.516-6.42319-1.05524c-7.25238-1.21082-14.7417-2.52957-22.2595-3.91951-9.24893-1.71025-18.38944-3.334-27.16725-4.82624-10.11431-1.71988-20.047-3.31532-29.52-4.74176q-1.482-.2235-2.953-.44156c-2.66021-.39488-5.32351-.7821-7.94979-1.15593.06175-1.64112.13363-3.39215.20248-5.06888.43869-10.68544,1.03949-25.31957.66887-38.93631-.418-15.35793-.446-26.98724-.30661-33.95844l.659-.00494q1.163-.00854,2.33194-.01175l1.34518-.00181c3.8647,0,7.81389.04612,11.73789.13719,9.10187.21112,18.54455.66775,28.06556,1.35712,9.99238.72357,20.35993,1.72432,30.81487,2.97444,2.51588.30075,5.0795.62112,7.61981.95219q2.88188.37547,5.78644.777c7.30737,1.01006,14.82744,2.15994,22.35194,3.41781q2.41875.40416,4.85257.82569c3.25286.56312,6.56706,1.15656,9.85087,1.76381,5.26556.9735,10.51538,1.93225,15.604,2.84969,6.07481,1.09506,12.10087,2.164,17.91106,3.17731,5.20825.90819,10.40144,1.79925,15.43513,2.64844q3.35259.56568,6.64962,1.113c9.44088,1.56762,18.67381,3.04487,27.44275,4.39075q2.56744.39393,5.09569.77537,3.37416.5087,6.67894.99494,3.44663.50718,6.81887.98969c3.99256.57125,7.96425,1.12469,11.80444,1.64481,8.36656,1.13331,16.47069,2.15737,24.08743,3.04388,2.94882.34318,5.89444.67381,8.75538.98256,7.02356.75793,13.79925,1.41168,20.13888,1.94319,8.61093.72181,16.70387,1.24181,24.05406,1.54556,3.46625.14319,6.83663.24137,10.01756.29187,1.74375.02769,3.469.04169,5.12787.04169,4.09682,0,8.00151-.08544,11.60588-.25394a149.37384,149.37384,0,0,0,15.22994-1.41931,98.82693,98.82693,0,0,0,22.97238-6.23006,80.88508,80.88508,0,0,0,8.71674-4.23063c1.7827-1.00419,3.53532-2.0865,5.2095-3.21718a73.17831,73.17831,0,0,0,8.21025-6.44269,74.86368,74.86368,0,0,0,13.35263-16.159,86.39722,86.39722,0,0,0,5.94293-11.55113,110.64125,110.64125,0,0,0,6.70688-22.66581,98.14632,98.14632,0,0,0,1.57738-12.54219,72.991,72.991,0,0,0-.23819-11.75837,54.70555,54.70555,0,0,0-3.89131-15.53988,54.04867,54.04867,0,0,0-8.947-14.57025,47.58152,47.58152,0,0,0-3.92306-4.00119,46.92171,46.92171,0,0,0-5.33117-4.16518c.09491-1.09658.29349-2.65532.6913-4.80819.5475-2.96263,1.38062-6.55793,2.47651-10.68638,1.02368-3.85731,2.24093-8.06856,3.83074-13.253.52369-1.70757,1.013-3.27775,1.44162-4.653.1787-.57349.34173-1.097.49056-1.57647m-4.31764-10.108a4.83782,4.83782,0,0,0-2.44217.49064,2.599,2.599,0,0,0-.33594.23257,4.91363,4.91363,0,0,0-1.35324,2.72525c-.34663,1.36468-1.55814,5.113-3.04369,9.95712-1.2355,4.02894-2.66075,8.81581-3.9357,13.61981-1.04467,3.93581-1.98831,7.88306-2.64456,11.43437-1.23887,6.70432-1.45244,11.99769.61608,13.13863a36.93388,36.93388,0,0,1,10.24073,8.22225,43.87825,43.87825,0,0,1,7.27233,11.88644,44.52859,44.52859,0,0,1,3.16061,12.70175,62.68334,62.68334,0,0,1,.19945,10.14112,87.723,87.723,0,0,1-1.42006,11.25713,100.19024,100.19024,0,0,1-6.08507,20.61262,76.01854,76.01854,0,0,1-5.25,10.2105,64.57036,64.57036,0,0,1-11.56375,14.00494,62.84464,62.84464,0,0,1-7.08456,5.55875q-2.18644,1.47666-4.52013,2.79119a70.51984,70.51984,0,0,1-7.63487,3.70431,88.43,88.43,0,0,1-20.64475,5.58212,138.7913,138.7913,0,0,1-14.19894,1.31738q-5.19814.243-11.13863.243-2.42312,0-4.96924-.04042-4.67364-.07415-9.76338-.28462-10.86732-.44907-23.63156-1.51913-9.433-.79079-19.90132-1.92037-4.25071-.45882-8.67218-.97325-11.38416-1.325-23.90119-3.02044-5.74575-.77821-11.73031-1.6345-3.35212-.4798-6.77944-.98394-3.28753-.48375-6.64394-.98975-2.51539-.37931-5.06987-.77143-13.14778-2.018-27.32138-4.37138-3.28434-.54525-6.62406-1.10869-7.54987-1.27368-15.38094-2.63919-8.75165-1.52624-17.85487-3.16731-7.65571-1.38027-15.56-2.84168-5.0115-.92673-9.96294-1.78388-2.46254-.42638-4.91025-.8355-11.47912-1.919-22.631-3.46038-2.94307-.40686-5.86356-.78737-3.88248-.506-7.72481-.96531-15.98843-1.91175-31.27969-3.019-14.59548-1.05684-28.55594-1.38057-6.04562-.14019-11.96979-.13987-.68721,0-1.37253.00187-1.19147.00311-2.37805.01194l-.79419.006a25.18242,25.18242,0,0,0-2.98838.23769l-1.13118.07456c-1.17075.07725-2.59707.13125-4.12206.16856l-.79.01944c-.90143.01388-1.10368,19.69188-.44943,43.72894.65431,24.037-1.83719,52.31813-.76437,52.45519l1.00161.1365q1.60632.21872,3.22669.44374.81293.113,1.62938.22738,5.18559.72713,10.51318,1.51788,1.45979.21655,2.93.43812,14.173,2.13412,29.33493,4.71206,13.14114,2.234,27.02531,4.80107,11.3883,2.10552,22.43106,3.94969,3.253.54327,6.47638,1.06393,12.46031,2.01273,24.47263,3.68581,9.155,1.2751,18.04962,2.35344,13.6967,1.66069,26.77613,2.85382,10.75827.98117,21.09894,1.64674,11.60147.74664,22.67718,1.09513,9.69788.30507,18.99312.30554,1.02472,0,2.04351-.00372,8.21409-.02964,16.11025-.29976,14.32-.48975,27.59537-1.77082,14.09373-1.35974,27.01019-3.61149a272.47312,272.47312,0,0,0,32.86838-7.74687q6.077-1.85823,11.81412-3.97313,5.08595-1.875,9.933-4.03819a158.45437,158.45437,0,0,0,16.01838-8.25875q6.66975-3.93525,12.824-8.432,3.761-2.74227,7.33337-5.67943a168.43824,168.43824,0,0,0,19.05138-18.38182q5.54139-6.24505,10.49663-12.99162,5.61731-7.63211,10.50419-15.82419,2.3023-3.84994,4.44756-7.80738a240.85886,240.85886,0,0,0,15.60126-35.54175,282.60587,282.60587,0,0,0,8.661-30.29881q1.26112-5.5425,2.31307-11.12212,2.21972-11.76057,3.55325-23.66544.57947-5.166.99168-10.34869.55012-6.91341.80368-13.84568.12694-3.464.17963-6.92994c.09813-6.34425,2.82806-17.25025-1.22218-22.45213-1.35013-1.73406-3.45357-2.83425-6.65906-2.92037q-10.08112-.27086-20.16263-.53356-4.14543-.10828-8.29088-.21557-5.52722-.14325-11.05468-.28519-2.76366-.071-5.52726-.14174c-.18924-.00486-.38157-.00877-.57464-.00877Z"/></svg>